<svg height="38" version="1.1" width="138" xmlns="http://www.w3.org/2000/svg" viewBox="0 0 138 38">
  <defs></defs>
  <g>
    <g transform="matrix(1,0,0,1,0,0)">
      <path fill="#ffffff"
        d="M30.25-13.45Q31.10-13.70 33.80-13.55Q36.50-13.40 37.20-13.20L37.20-13.20Q37.75-13 39.20-11.78Q40.65-10.55 41.83-9.38Q43-8.20 42.85-8L42.85-8Q42.60-7.80 42.60-7.30L42.60-7.30Q42.60-7.05 42.45-6.98Q42.30-6.90 41.80-7.05L41.80-7.05Q41-7.15 40.15-7.13Q39.30-7.10 38.80-7.38Q38.30-7.65 37.25-7.80L37.25-7.80Q35.05-8 33.05-8.65L33.05-8.65Q32.15-8.90 30.33-8.63Q28.50-8.35 28.28-8.50Q28.05-8.65 27.35-8.15L27.35-8.15Q26.35-7.40 20.95-6.90L20.95-6.90Q18.30-6.60 17.05-6.25L17.05-6.25Q15.10-5.70 14.18-5.70Q13.25-5.70 11.80-6.25L11.80-6.25Q9.90-6.95 8.58-7.88Q7.25-8.80 7.15-9.50L7.15-9.50Q7.10-9.90 7.20-10.05Q7.30-10.20 7.75-10.20L7.75-10.20Q8.35-10.20 8.50-10.40Q8.65-10.60 9.70-10.50Q10.75-10.40 12.40-10.80L12.40-10.80L14.95-11.45Q15.80-11.65 19.95-11.93Q24.10-12.20 25.25-12.40L25.25-12.40L27.90-13Q29.35-13.25 30.25-13.45L30.25-13.45ZM27.45-24.10Q28.15-24.25 31.08-24.15Q34-24.05 34.55-23.85L34.55-23.85Q35.15-23.60 35.65-23.33Q36.15-23.05 35.80-22.63Q35.45-22.20 35.77-21.68Q36.10-21.15 35.63-20.80Q35.15-20.45 34.23-20.45Q33.30-20.45 33.30-20.23Q33.30-20 32.43-19.58Q31.55-19.15 31.55-18.95L31.55-18.95Q31.55-18.65 29.55-18.10Q27.55-17.55 26.15-17.40L26.15-17.40Q24.40-17.20 21.98-17.93Q19.55-18.65 18.25-19.70L18.25-19.70Q14.75-22.50 15-23.15L15-23.15Q15.15-23.55 15.30-23.40Q15.45-23.25 16.07-23.50Q16.70-23.75 17.95-23.35L17.95-23.35Q19.05-23 21.55-23.08Q24.05-23.15 25.60-23.60L25.60-23.60Q26.85-23.95 27.45-24.10L27.45-24.10ZM73.25-24.50Q73.45-24.70 73.97-24.55Q74.50-24.40 75.35-24.20Q76.20-24 76.47-23.73Q76.75-23.45 77.20-23.45Q77.65-23.45 77.80-22.75L77.80-22.75Q77.95-22.30 78.13-22.23Q78.30-22.15 79-22.25L79-22.25Q83.35-22.95 87.40-22.85L87.40-22.85Q89.15-22.85 90.40-22.85L90.40-22.85Q93.55-22.95 94.75-22.30L94.75-22.30Q95.25-22.10 95.30-21.30Q95.35-20.50 94.90-20.30L94.90-20.30Q94.45-20.15 92.45-20.43Q90.45-20.70 89.70-21L89.70-21Q88.85-21.40 87.30-21.55L87.30-21.55Q85.70-21.75 82.18-21.25Q78.65-20.75 78-20.35L78-20.35Q77.50-19.95 77.15-17.03Q76.80-14.10 76.90-10.85L76.90-10.85Q76.95-7.35 76.80-1.50L76.80-1.50Q76.75 3.65 76.33 3.90Q75.90 4.15 75.45 3.70Q75 3.25 75 1.20L75 1.20Q74.80-12.15 74.35-14.40L74.35-14.40Q74.15-16 74.15-17.55Q74.15-19.10 73.90-19.28Q73.65-19.45 72.42-18.82Q71.20-18.20 65.55-16.40Q59.90-14.60 58.73-14.18Q57.55-13.75 57-14.05L57-14.05Q55.05-15.10 54.85-16.45L54.85-16.45L54.70-17.40L55.95-17.25Q57.30-17.05 59.23-17.73Q61.15-18.40 66.17-19.48Q71.20-20.55 72.08-20.88Q72.95-21.20 73.30-21.30Q73.65-21.40 73.55-21.80L73.55-21.80Q73.30-22.30 73.25-23.28Q73.20-24.25 73.25-24.50L73.25-24.50ZM70.50-30.70Q70.80-30.70 70.90-30.95Q71-31.20 73.63-32.58Q76.25-33.95 77.60-33.95L77.60-33.95Q78.50-34 78.75-33.90Q79-33.80 79.15-33.50L79.15-33.50Q79.20-32.95 79.60-33L79.60-33Q79.95-33.10 80.08-32.30Q80.20-31.50 80.03-30.63Q79.85-29.75 79.50-29.60L79.50-29.60Q79.05-29.45 78.63-29.13Q78.20-28.80 77.80-29.30L77.80-29.30Q77.60-29.65 77.35-29.70Q77.10-29.75 76.25-29.50L76.25-29.50Q75-29.15 73.97-28.95Q72.95-28.75 71.63-28.23Q70.30-27.70 69.60-27.70L69.60-27.70Q69-27.70 67.80-27.20Q66.60-26.70 66.45-26.45L66.45-26.45Q66.30-26.15 65.58-26.20Q64.85-26.25 64.85-26.45L64.85-26.45Q64.85-27.15 67.22-28.93Q69.60-30.70 70.50-30.70L70.50-30.70ZM127.05-18.10Q130-18.35 130.25-18.38Q130.50-18.40 135-18.05Q139.50-17.70 140.75-17.70L140.75-17.70Q141.70-17.70 143.32-17.20Q144.95-16.70 145.40-16.30L145.40-16.30Q145.75-15.95 145.53-15.15Q145.30-14.35 144.75-14.15L144.75-14.15Q143.65-13.70 141.90-14.55L141.90-14.55Q141.20-14.90 140.70-14.70L140.70-14.70Q140.15-14.35 139.65-14.38Q139.15-14.40 139-14.75L139-14.75Q138.80-15.25 134.82-15.23Q130.85-15.20 129.10-14.70L129.10-14.70Q128.60-14.55 128.18-14.45Q127.75-14.35 127.55-14.30Q127.35-14.25 127.35-14.35L127.35-14.35Q127.35-14.50 126.65-14.03Q125.95-13.55 124.80-13.35L124.80-13.35Q119.40-12.45 117.25-11.90L117.25-11.90Q116.35-11.70 114.10-11.55L114.10-11.55Q112.05-11.40 110.80-11.73Q109.55-12.05 108.10-13L108.10-13Q106.75-13.90 105.55-14.40L105.55-14.40Q104.65-14.75 104.47-15.10Q104.30-15.45 104.70-15.95L104.70-15.95Q105.55-17 108.90-16.45L108.90-16.45Q110.30-16.25 111.30-16.45L111.30-16.45Q113.25-16.85 118.30-17.38Q123.35-17.90 127.05-18.10L127.05-18.10Z"
        transform="translate(-7.133334350585938, 33.96666717529297)"></path>
    </g>
  </g>
</svg>